# xmcd
#
# Track frame offsets: 
#        150
#        13321
#        32001
#        49257
#        76321
#        88918
#        106098
#        122243
#        135406
#        154339
#        169728
#        185997
#
# Disc length: 2775 seconds
#
# Revision: 0
# Processed by: cddbd v1.5.2PL0 Copyright (c) Steve Scherf et al.
# Submitted via: ExactAudioCopy v1.0b3
#
DISCID=a10ad50c
DTITLE=Peter Nonn Blues Band - Peter Nonn Blues Band 
DYEAR=2015
DGENRE=Blues
TTITLE0=mercury blues
TTITLE1=groovin'
TTITLE2=come together
TTITLE3=friend of the devil
TTITLE4=sway
TTITLE5=rock it with
TTITLE6=shame and scandal in the family
TTITLE7=lazy bones
TTITLE8=russian lullabye
TTITLE9=walking stick
TTITLE10=one meat ball
TTITLE11=pay the man 
EXTD=
EXTT0=
EXTT1=
EXTT2=
EXTT3=
EXTT4=
EXTT5=
EXTT6=
EXTT7=
EXTT8=
EXTT9=
EXTT10=
EXTT11=
PLAYORDER=
